<svg id="图层_1" data-name="图层 1" xmlns="http://www.w3.org/2000/svg" viewBox="0 0 192.64 45.27"><defs><style>.cls-1{fill:#fff;}.cls-2{fill:#ffa509;}</style></defs><polygon class="cls-1" points="141.65 9.08 141.66 10.07 140.47 10.08 140.46 9.09 141.65 9.08"/><polygon class="cls-1" points="122.95 0.3 122.95 1.18 118.32 1.2 118.33 4.55 121.75 4.53 121.75 5.42 118.33 5.43 118.35 9.21 123.2 9.19 123.21 10.1 116.92 10.13 116.88 0.32 122.95 0.3"/><path class="cls-1" d="M133.15,5.23a1.8,1.8,0,0,0-2-1.76c-1.12,0-1.82.55-1.82,1.29,0,2.23,5.33,2.22,5.34,5.37,0,1.56-1.2,2.49-3.39,2.51s-3.33-1.11-3.36-2.76h1.32c0,1.16.78,1.88,2.19,1.88,1.2,0,2-.6,2-1.64,0-2.22-5.34-2.46-5.34-5.26,0-1.37,1.28-2.27,3.18-2.28s3.17.91,3.28,2.65Z" transform="translate(-3.36 -2.43)"/><polygon class="cls-1" points="138.99 0.25 138.99 1.11 136.28 1.12 136.31 10.05 134.88 10.06 134.85 1.14 132.12 1.14 132.12 0.26 138.99 0.25"/><path class="cls-1" d="M151.29,12.44v-.82h1.62l0-7.87-1.65.12V3.25a6.33,6.33,0,0,0,2.1-.75h.88l0,9.11h1.55v.81Z" transform="translate(-3.36 -2.43)"/><path class="cls-1" d="M160,10.58a1.31,1.31,0,0,0,1.43,1.14c1.2,0,1.9-1.21,1.94-3.94a3.44,3.44,0,0,1-2,.78,2.69,2.69,0,0,1-2.86-3,2.72,2.72,0,0,1,2.83-3.06c2.31,0,3.4.95,3.42,4.48,0,4-1.23,5.57-3.32,5.58-1.71,0-2.35-.75-2.62-1.89ZM163.36,6c0-2-.72-2.69-1.88-2.69s-1.71.58-1.71,2.27.79,2.17,1.65,2.16a2.78,2.78,0,0,0,1.94-.83Z" transform="translate(-3.36 -2.43)"/><path class="cls-1" d="M169.73,12.49c-2,0-3.26-1.16-3.26-2.59,0-1.19.85-2.08,2.1-2.74-1.16-.71-1.82-1.38-1.83-2.52,0-1.3,1.32-2.19,3-2.21s3,.89,3,2.19c0,1.15-.64,1.83-1.82,2.54,1.27.65,2.15,1.53,2.15,2.72,0,1.42-1.2,2.61-3.28,2.61m0-4.83c-1.05.6-1.94,1.22-1.94,2.28a2,2,0,0,0,3.91,0c0-1.08-.89-1.68-2-2.28m0-4.41c-1.13,0-1.64.65-1.64,1.28a1.71,1.71,0,1,0,3.31,0c0-.63-.51-1.26-1.67-1.26" transform="translate(-3.36 -2.43)"/><polygon class="cls-1" points="171.53 0.12 177.49 0.11 177.49 0.61 173.65 9.91 172.26 9.92 176.1 0.9 171.53 0.91 171.53 0.12"/><path class="cls-1" d="M88.35,16.08l-27.67.08,0,5.23,10.36-.05.1,26.11,1.8,0s5.41-.17,5.39-5.36c0-3.55-.08-20.75-.08-20.75l10.08,0Z" transform="translate(-3.36 -2.43)"/><path class="cls-1" d="M139.7,40.32a7.49,7.49,0,0,1-4.77,1.59,8.09,8.09,0,0,1-5.33-2,9.31,9.31,0,0,1-3.06-5.68,14.89,14.89,0,0,1,.27-6.73,8.47,8.47,0,0,1,3.16-5,8.84,8.84,0,0,1,5.21-1.6,8,8,0,0,1,4.52,1.18A7.62,7.62,0,0,1,142.6,26l6.65-.62a13.36,13.36,0,0,0-5.4-7.18,16.9,16.9,0,0,0-9.54-2.61,16.72,16.72,0,0,0-8.76,2.32,12.51,12.51,0,0,0-5.36,6.64A17.66,17.66,0,0,0,119.6,34q1.2,6.4,5.38,9.76a16.12,16.12,0,0,0,10.49,3.33,15.24,15.24,0,0,0,9.28-2.73,12.66,12.66,0,0,0,4.81-7.81l-7.3-.91a7.33,7.33,0,0,1-2.56,4.65" transform="translate(-3.36 -2.43)"/><path class="cls-1" d="M173.37,15.77l.08,12.11-13.75.05v0l-7.24,0V47.11H154a5.18,5.18,0,0,0,5.72-5.66c0-3.78,0-8.34,0-8.34l13.75,0V47h1.88s5.35.23,5.32-4.88c0-3.93-.09-26.4-.09-26.4Z" transform="translate(-3.36 -2.43)"/><path class="cls-1" d="M159.67,23.53h0s0,1.93,0-2.49c0-5.72-5.57-5.2-5.57-5.2h-1.7v1.27l.07,7.71,7.23,0Z" transform="translate(-3.36 -2.43)"/><path class="cls-1" d="M46,38.11l6.14-8.68,0,6.06h5L57.08,22H52.75L41.15,38.16V42.4l11,0,0,5.1h.32s4.68.33,4.66-4c0-2.52,0-1.13,0-1.13l3.33,0V38.07Z" transform="translate(-3.36 -2.43)"/><path class="cls-2" d="M15.73,47.63A4.34,4.34,0,0,0,18,45.75C20.07,42.82,27,30.46,27,30.46s1.24,8.82,1.68,12c.65,4.63-3.19,5-3.19,5Z" transform="translate(-3.36 -2.43)"/><path class="cls-1" d="M31,8.78a6.87,6.87,0,0,0-6.21,3.56C22.39,16.3,3.36,47.7,3.36,47.7l4.72,0S13,47.87,15.36,44C17.92,39.9,35.64,8.76,35.64,8.76Zm9.19,33c-.45-3.27-3.76-27.7-3.76-27.7L30.6,24.15a6.34,6.34,0,0,0-.39,3.71c.42,3.28,1.34,10,1.92,14.37s-1.84,5.38-1.84,5.38l5.59,0s5-.13,4.27-5.83" transform="translate(-3.36 -2.43)"/><path class="cls-1" d="M98.37,33.69l18.45-.08,0-5.18-18.51.06,0-4.15-7.08,0,.08,23.06,21.13-.08c5.07,0,4.47-4.54,4.47-4.54v-.75l-18.51.08Z" transform="translate(-3.36 -2.43)"/><polygon class="cls-1" points="95.94 18.91 113.42 18.83 113.4 13.71 87.84 13.73 87.85 18.92 95.94 18.9 95.94 18.91"/><path class="cls-1" d="M189.87,13.22h1c.57,0,.85.21.85.7s-.28.8-.85.8h-1Zm0,2.45h1.29c.31,0,.48.24.52.74a7.63,7.63,0,0,0,.22,1.53h1.32a3.26,3.26,0,0,1-.31-1.35.82.82,0,0,0,0-.18c0-.82-.38-1.24-1-1.26v0A1.37,1.37,0,0,0,193,13.73c0-1-.67-1.45-2-1.47h-2.42v5.68h1.22Z" transform="translate(-3.36 -2.43)"/><path class="cls-1" d="M190.73,10A5.28,5.28,0,1,0,196,15.25,5.29,5.29,0,0,0,190.73,10m0,9.36a4.08,4.08,0,1,1,4.08-4.08,4.08,4.08,0,0,1-4.08,4.08" transform="translate(-3.36 -2.43)"/></svg>